<svg xmlns="http://www.w3.org/2000/svg" viewBox="-108.7 3718.3 18.7 18.7">
  <defs>
    <style>
      .cls-1 {
        fill: #999;
      }
    </style>
  </defs>
  <path id="Path_192" data-name="Path 192" class="cls-1" d="M16,2.7A9.334,9.334,0,0,0,2.8,15.9,9.334,9.334,0,0,0,16,2.7ZM9.156,1.6a1.88,1.88,0,0,1,1.833,1.833A1.88,1.88,0,0,1,9.156,5.267,1.88,1.88,0,0,1,7.322,3.433,1.971,1.971,0,0,1,9.156,1.6Zm2.933,13.2c0,.367-.122.611-.611.611H6.956a.577.577,0,0,1-.611-.611V13.578a.577.577,0,0,1,.611-.611h.856V8.078H6.833a.577.577,0,0,1-.611-.611V6.244c0-.367.122-.611.611-.611h3.178c.367,0,.611.122.611.611v6.722h.856c.367,0,.611.122.611.611Z" transform="translate(-108.75 3718.35)"/>
</svg>
