<svg xmlns="http://www.w3.org/2000/svg" viewBox="-2326 2182 15.601 16">
  <path id="Path_746" data-name="Path 746" d="M15.3,12.2c-.5-.7-2-1.2-3.6-1.8a6.573,6.573,0,0,1-1.9-.9V8a2.576,2.576,0,0,0,.8-1.8c.4.1.7-.5.8-.9,0-.3-.1-1.2-.5-1.2A4.758,4.758,0,0,0,11,2.5,3.189,3.189,0,0,0,7.8,0,2.994,2.994,0,0,0,4.7,2.5a11.048,11.048,0,0,0,.1,1.6c-.4-.1-.5.8-.5,1.1s.4,1,.8.9A3.5,3.5,0,0,0,5.8,8V9.5s-.4.2-1.9.9C2.3,11,.8,11.5.3,12.2-.1,12.8,0,16,0,16H15.5C15.6,16,15.7,12.8,15.3,12.2Z" transform="translate(-2325.989 2182)"/>
</svg>
