<?xml version="1.0" encoding="iso-8859-1"?>
<!-- Generator: Adobe Illustrator 19.1.0, SVG Export Plug-In . SVG Version: 6.00 Build 0)  -->
<svg version="1.1" id="Capa_1" xmlns="http://www.w3.org/2000/svg" xmlns:xlink="http://www.w3.org/1999/xlink" x="0px" y="0px"
	 viewBox="0 0 513.529 513.529" style="enable-background:new 0 0 513.529 513.529;" xml:space="preserve">
<g>
	<g>
		<path d="M256.765,513.529C114.868,513.529,0,398.661,0,256.765S114.868,0,256.765,0s256.765,114.868,256.765,256.765
			C513.529,397.696,398.661,513.529,256.765,513.529z M256.765,23.167c-128.382,0-232.633,104.25-232.633,232.633
			s104.25,232.633,232.633,232.633s232.633-104.25,232.633-232.633S385.147,23.167,256.765,23.167z"/>
		<path d="M179.542,268.348c52.125,0,103.285,0,155.41,0c15.444,0,15.444-24.132,0-24.132c-52.125,0-103.285,0-155.41,0
			C164.098,244.216,164.098,268.348,179.542,268.348L179.542,268.348z"/>
	</g>
	<g>
	</g>
	<g>
	</g>
	<g>
	</g>
	<g>
	</g>
	<g>
	</g>
	<g>
	</g>
	<g>
	</g>
	<g>
	</g>
	<g>
	</g>
	<g>
	</g>
	<g>
	</g>
	<g>
	</g>
	<g>
	</g>
	<g>
	</g>
	<g>
	</g>
</g>
<g>
</g>
<g>
</g>
<g>
</g>
<g>
</g>
<g>
</g>
<g>
</g>
<g>
</g>
<g>
</g>
<g>
</g>
<g>
</g>
<g>
</g>
<g>
</g>
<g>
</g>
<g>
</g>
<g>
</g>
</svg>
