<svg xmlns="http://www.w3.org/2000/svg" viewBox="2756 -370 300 57.643">
  <defs>
    <style>
      .cls-1 {
        fill: #fff;
      }
    </style>
  </defs>
  <g id="Group_219" data-name="Group 219" transform="translate(2756 -370)">
    <g id="Group_217" data-name="Group 217" transform="translate(3.79)">
      <path id="Path_271" data-name="Path 271" class="cls-1" d="M38.108.394A2.222,2.222,0,0,0,36.553,2.63c-.292,3.4-.389,6.8-.389,14.966s-.1,14.869.1,18.27H35.29c-8.163-9.329-13.314-15.258-14.966-17.1-1.555-1.652-6.317-7-13.12-14.869,0,3.5.1,5.831.1,13.7,0,8.26.1,11.565.389,14.966A2.45,2.45,0,0,0,9.342,34.8l-.1.194A11.511,11.511,0,0,0,6.621,34.8,22.172,22.172,0,0,0,4,34.991v-.1a2.493,2.493,0,0,0,1.652-2.235c.194-3.5.292-6.8.292-15.063,0-8.163,0-11.273-.194-14.674A2.681,2.681,0,0,0,3.9.394L4,.2A34.761,34.761,0,0,0,8.759.492h.875c6.122,7,11.273,12.925,13.508,15.452s7,7.872,11.953,13.314C35,26.245,34.9,24.2,34.9,17.693c-.1-8.163-.194-11.565-.389-14.966A2.273,2.273,0,0,0,32.86.492l.1-.292a12.294,12.294,0,0,0,2.721.292A12.063,12.063,0,0,0,38.3.2Z" transform="translate(-3.9 -0.006)"/>
      <path id="Path_272" data-name="Path 272" class="cls-1" d="M68.879,30.715A29.663,29.663,0,0,0,67.032,34.8H47.693c-.875,0-2.915.1-3.693.194v-.1a2.722,2.722,0,0,0,1.652-2.235c.1-3.4.1-6.8.1-14.966s0-11.565-.1-14.966A2.273,2.273,0,0,0,44,.492V.2a22.743,22.743,0,0,0,3.693.292H65.186a38.775,38.775,0,0,0,1.263,4.082l-.292.292c-2.624-2.43-6.8-3.207-12.148-3.207-1.361,0-2.721,0-4.179.1-.1,4.082-.1,7.483-.1,14.772,11.662-.1,12.342-.486,12.925-2.235l.292.1a13.193,13.193,0,0,0-.292,2.818,12.294,12.294,0,0,0,.292,2.721l-.292.194c-.583-1.846-1.361-2.235-12.925-2.235v.1c0,8.066,0,12.439.1,15.841,1.458.1,2.818.1,4.276.1,5.734-.1,11.176-.68,14.48-3.11Z" transform="translate(-5.03 -0.006)"/>
      <path id="Path_273" data-name="Path 273" class="cls-1" d="M120.043.394a5.123,5.123,0,0,0-2.818,2.624c-1.749,3.4-3.11,6.22-6.9,14.091-3.693,7.969-6.9,14.772-8.358,18.076h-.68c-1.166-2.721-3.5-7.677-6.317-13.7-2.818,6.025-5.151,10.982-6.317,13.7h-.777c-1.458-3.3-4.568-10.107-8.358-18.076C75.728,9.238,74.659,6.808,72.91,3.5,72.132,2.046,70.869.686,69.8.492L69.9.2a27.829,27.829,0,0,0,4.082.292A32.389,32.389,0,0,0,78.449.2l.1.292C77.186.977,76.8,1.755,77.089,2.727c1.458,3.4,3.11,6.608,6.8,14.577,3.693,7.872,4.276,9.232,5.831,12.731,1.361-2.915,2.332-5.345,4.47-9.913L92.929,17.3c-3.79-8.066-4.956-10.5-6.706-13.8C85.446,2.046,84.183.686,83.114.492l.1-.292a27.829,27.829,0,0,0,4.082.292A32.389,32.389,0,0,0,91.763.2l.1.292C90.6.977,90.111,1.658,90.5,2.727c1.263,3.013,2.721,6.025,5.831,12.634,3.013-6.706,4.276-9.621,5.539-12.634.389-.972-.1-1.749-1.458-2.235l.1-.292a14.4,14.4,0,0,0,3.013.292A15.82,15.82,0,0,0,106.535.2l.1.292a4.839,4.839,0,0,0-2.818,2.624C102.161,6.322,100.9,8.946,97.5,15.943l-.486,1.069c1.846,3.887,3.693,8.066,5.928,13.022,1.652-3.5,2.721-6.22,5.831-12.731,3.79-7.969,5.053-11.176,6.414-14.577.389-.972-.1-1.652-1.361-2.235l.1-.292a13.763,13.763,0,0,0,3.013.292A15.82,15.82,0,0,0,119.946.2Z" transform="translate(-5.757 -0.006)"/>
      <path id="Path_274" data-name="Path 274" class="cls-1" d="M168.222,35.088a22.914,22.914,0,0,0-3.693-.194c-.875,0-2.915.1-3.693.194l-.1-.194a2.24,2.24,0,0,0,1.652-2.235c.1-3.4.1-6.706.1-14.772H140.331c0,8.066,0,11.37.1,14.772a2.358,2.358,0,0,0,1.652,2.235l-.1.194a23.522,23.522,0,0,0-3.693-.194c-.875,0-2.915.1-3.693.194l-.1-.194a2.493,2.493,0,0,0,1.652-2.235c.1-3.4.1-6.8.1-14.966s0-11.565-.1-14.966A2.273,2.273,0,0,0,134.5.492L134.6.2a23.643,23.643,0,0,0,3.693.292A23.644,23.644,0,0,0,141.983.2l.1.292a2.3,2.3,0,0,0-1.652,2.235c-.1,3.207-.1,6.414-.1,13.7h22.157c0-7.289,0-10.4-.1-13.7A2.273,2.273,0,0,0,160.739.492l.1-.292a22.743,22.743,0,0,0,3.693.292A21.891,21.891,0,0,0,168.222.2l.1.292a2.052,2.052,0,0,0-1.555,2.235c-.194,3.4-.194,6.8-.194,14.966s-.1,11.565.194,14.966a2.306,2.306,0,0,0,1.555,2.235Z" transform="translate(-7.581 -0.006)"/>
      <path id="Path_275" data-name="Path 275" class="cls-1" d="M207.826,35.085a28.717,28.717,0,0,0-4.179-.194c-.972,0-3.693.1-4.47.194l-.1-.194c1.361-.583,1.749-1.361,1.361-2.235-.972-2.332-2.041-4.665-3.984-8.649h-17.1c-1.846,3.984-2.818,6.22-3.79,8.649-.389.875.1,1.652,1.458,2.235l-.1.194a14.722,14.722,0,0,0-3.013-.194c-.972,0-2.041.1-3.013.194l-.1-.194a4.778,4.778,0,0,0,2.818-2.721c1.749-3.4,3.11-6.122,6.9-13.994,3.79-8.066,6.9-14.772,8.358-18.076h.777c1.458,3.3,4.568,10.107,8.358,18.076s4.956,10.2,6.706,13.605a6.383,6.383,0,0,0,3.11,3.11ZM195.873,22.549c-.583-1.263-1.263-2.818-2.041-4.373C190.139,10.3,189.556,8.944,188,5.445c-1.652,3.5-2.721,6.122-5.831,12.731q-1.166,2.478-2.041,4.373Z" transform="translate(-8.604 -0.003)"/>
      <path id="Path_276" data-name="Path 276" class="cls-1" d="M239.129.394a4.743,4.743,0,0,0-2.818,2.721c-1.749,3.4-3.11,6.122-6.9,14.091s-6.9,14.772-8.358,18.076h-.777c-1.458-3.3-4.568-10.107-8.358-18.076-3.693-7.969-4.859-10.3-6.608-13.605A6.351,6.351,0,0,0,202.2.492L202.3.2a27.829,27.829,0,0,0,4.082.292A32.389,32.389,0,0,0,210.849.2l.1.292c-1.361.583-1.846,1.361-1.458,2.235,1.458,3.4,3.11,6.608,6.8,14.577,3.693,7.872,4.276,9.232,5.831,12.731,1.652-3.5,2.721-6.22,5.831-12.731,3.79-7.969,4.956-11.079,6.414-14.577.389-.972-.1-1.652-1.458-2.235l.1-.292a14.4,14.4,0,0,0,3.013.292A15.821,15.821,0,0,0,239.032.2Z" transform="translate(-9.489 -0.006)"/>
      <path id="Path_277" data-name="Path 277" class="cls-1" d="M266.679,30.712a29.664,29.664,0,0,0-1.846,4.082H245.59c-.875,0-2.915.1-3.693.194l-.1-.194a2.722,2.722,0,0,0,1.652-2.235c.1-3.4.1-6.8.1-14.966s0-11.565-.1-14.966A2.273,2.273,0,0,0,241.8.392L241.9.1a22.743,22.743,0,0,0,3.693.292h17.493a38.776,38.776,0,0,0,1.263,4.082l-.292.292c-2.624-2.43-6.8-3.207-12.148-3.207-1.361,0-2.721,0-4.179.1-.1,4.179-.1,7.58-.1,14.869,11.662-.1,12.342-.486,12.925-2.235l.292.1a13.193,13.193,0,0,0-.292,2.818,12.3,12.3,0,0,0,.292,2.721l-.292.194c-.583-1.846-1.361-2.235-12.925-2.235v.1c0,8.066,0,12.439.1,15.841,1.458.1,2.818.1,4.276.1,5.734-.1,11.176-.68,14.48-3.11Z" transform="translate(-10.605 -0.003)"/>
      <path id="Path_278" data-name="Path 278" class="cls-1" d="M304.005.389a2.222,2.222,0,0,0-1.555,2.235c-.292,3.4-.389,6.8-.389,14.966s-.1,14.869.1,18.27h-.972c-8.163-9.329-13.314-15.258-14.966-17.1C284.569,17.007,279.9,11.662,273,3.79c0,3.5.1,5.831.1,13.7.1,8.163.194,11.565.389,14.966a2.45,2.45,0,0,0,1.652,2.235l-.1.194a11.511,11.511,0,0,0-2.624-.194,22.174,22.174,0,0,0-2.624.194l-.1-.194a2.493,2.493,0,0,0,1.652-2.235c.292-3.4.292-6.8.292-14.966s0-11.273-.1-14.674A2.818,2.818,0,0,0,269.7.292L269.8,0a34.761,34.761,0,0,0,4.762.292h.875c6.122,7,11.273,12.925,13.508,15.452s7,7.872,11.953,13.314c-.1-3.013-.194-5.053-.194-11.565-.1-8.163-.194-11.565-.389-14.966A2.273,2.273,0,0,0,298.66.292l.1-.292a12.293,12.293,0,0,0,2.721.292A12.063,12.063,0,0,0,304.1,0Z" transform="translate(-11.391)"/>
    </g>
    <g id="Group_218" data-name="Group 218" transform="translate(56.268 45.384)">
      <path id="Path_279" data-name="Path 279" class="cls-1" d="M68.4,53.42c0,1.749-1.652,2.527-3.4,2.527H57.9v-.972h.972c.389,0,.68-.1.68-.777V48.949c0-.583-.1-.777-.777-.777H57.9V47.2h6.511c1.846,0,3.3.68,3.3,2.235a2.109,2.109,0,0,1-1.555,1.944A2.046,2.046,0,0,1,68.4,53.42Zm-7-2.624h2.915c1.069,0,1.555-.583,1.555-1.361,0-.875-.777-1.263-1.846-1.263H61.4V50.8Zm0,3.984h3.207c1.166-.1,1.749-.68,1.749-1.458,0-.972-.777-1.458-1.944-1.458H61.4V54.78Z" transform="translate(-57.9 -46.714)"/>
      <path id="Path_280" data-name="Path 280" class="cls-1" d="M81.1,52.153c0,2.721-1.652,3.984-4.373,3.984-2.818,0-4.568-1.166-4.568-3.984V48.946c0-.68-.194-.875-.777-.875H70.6V47.1h4.956v.972h-.777c-.68,0-.777.292-.777.875v3.11c0,1.944,1.166,2.721,2.915,2.721s2.915-.777,2.915-2.721v-3.11c0-.583-.1-.875-.68-.875h-.875V47.1h4.373v.972h-.777c-.68,0-.68.292-.68.875v3.207Z" transform="translate(-58.258 -46.711)"/>
      <path id="Path_281" data-name="Path 281" class="cls-1" d="M88.7,54.094c0,.583.1.777.777.777h.875v.972H85.2v-.972h.972c.389,0,.68-.1.68-.777V48.749c0-.68-.194-.777-.777-.777H85.2V47h5.151v.972h-.972c-.389,0-.68.1-.68.777Z" transform="translate(-58.669 -46.708)"/>
      <path id="Path_282" data-name="Path 282" class="cls-1" d="M102.818,55.944H93.1v-.972h.875c.486,0,.777,0,.777-.777V48.849c0-.583-.1-.777-.777-.777H93.1V47.1h5.248v.972H97.182c-.389,0-.68.1-.68.777v5.928h2.527c2.041,0,2.624,0,3.11-2.818.292,0,.68.1.972.1C103.013,53.32,102.915,54.583,102.818,55.944Z" transform="translate(-58.892 -46.711)"/>
      <path id="Path_283" data-name="Path 283" class="cls-1" d="M111.339,47.1c3.3,0,5.248,1.555,5.248,4.373,0,2.721-1.944,4.47-5.248,4.47H105.8v-.972h.972c.389,0,.68-.1.68-.777V48.946c0-.583-.1-.777-.777-.777H105.8V47.2h5.539Zm-.389,7.677c2.235,0,3.79-1.069,3.79-3.3,0-2.43-1.652-3.207-3.693-3.207H109.3v6.511Z" transform="translate(-59.25 -46.711)"/>
      <path id="Path_284" data-name="Path 284" class="cls-1" d="M122.5,54.094c0,.583.1.777.777.777h.875v.972H119v-.972h.972c.389,0,.68-.1.68-.777V48.749c0-.68-.194-.777-.777-.777H119V47h5.151v.972h-.972c-.389,0-.68.1-.68.777v5.345Z" transform="translate(-59.622 -46.708)"/>
      <path id="Path_285" data-name="Path 285" class="cls-1" d="M136.521,48.849c0-.583-.1-.777-.777-.777h-.777V47.1h4.373v.972h-.972c-.389,0-.68.1-.68.777v7.094h-1.263l-6.706-6.9v5.151c0,.583.1.777.777.777h.777v.972H126.9v-.972h.972c.389,0,.68-.1.68-.777V48.946c0-.583-.1-.777-.777-.777H126.9V47.2h3.6l6.025,6.22Z" transform="translate(-59.845 -46.711)"/>
      <path id="Path_286" data-name="Path 286" class="cls-1" d="M151.221,46.992l.389,3.3-.972.1a3.6,3.6,0,0,0-3.5-2.332,3.352,3.352,0,0,0-3.6,3.3,3.4,3.4,0,0,0,3.693,3.4,3.3,3.3,0,0,0,2.915-1.263v-.389c0-.1-.1-.389-.292-.389h-1.555V51.656h4.762v1.069h-.68c-.389,0-.583,0-.583.68v2.332h-.875l-.389-1.069a4.735,4.735,0,0,1-3.693,1.263c-3.013,0-5.248-1.846-5.248-4.665,0-3.013,2.624-4.568,5.151-4.568,1.944,0,2.818.777,3.3.777.194,0,.194-.292.194-.583h.972Z" transform="translate(-60.259 -46.7)"/>
      <path id="Path_287" data-name="Path 287" class="cls-1" d="M165,47.1h3.5l3.984,7.191c.194.292.389.68.972.68h.777v.972h-5.442v-.972h1.166c.389,0,.583-.194.389-.583l-.486-.972h-4.665l-.486.875c-.194.389,0,.68.486.68h.972v.972H161.5v-.972h.777c.486,0,.68-.194.875-.68l3.013-5.539c.194-.292.1-.583-.292-.583H164.8V47.1Zm2.527,2.041-1.652,3.11h3.4C168.691,51.182,168.108,50.113,167.525,49.141Z" transform="translate(-60.82 -46.711)"/>
      <path id="Path_288" data-name="Path 288" class="cls-1" d="M182.922,47.1c1.944,0,3.693.486,3.693,2.527a2.517,2.517,0,0,1-2.235,2.43,3.627,3.627,0,0,0,3.887,2.818l.1.972a5.089,5.089,0,0,1-5.928-3.6H180.2V54.1c0,.583.1.777.777.777h.875v.972H176.8v-.972h.972c.389,0,.68-.1.68-.777V48.849c0-.583-.1-.777-.777-.777H176.8V47.1Zm-.292,3.984c1.263,0,1.944-.583,1.944-1.555s-.777-1.458-1.944-1.458H180.1v2.915h2.527Z" transform="translate(-61.251 -46.711)"/>
      <path id="Path_289" data-name="Path 289" class="cls-1" d="M200.113,50.3l-.972.1a3.6,3.6,0,0,0-3.5-2.332,3.352,3.352,0,0,0-3.6,3.3c0,2.138,1.652,3.4,3.79,3.4a4.825,4.825,0,0,0,3.693-1.652l.777.68a5.4,5.4,0,0,1-4.762,2.235c-3.11,0-5.345-1.846-5.345-4.665,0-2.915,2.624-4.47,5.151-4.47,1.944,0,2.818.777,3.3.777.194,0,.194-.389.194-.68h.972Z" transform="translate(-61.629 -46.706)"/>
      <path id="Path_290" data-name="Path 290" class="cls-1" d="M213.5,54.094c0,.583.1.777.777.777h.875v.972h-4.956v-.972h.875c.389,0,.68-.1.68-.777V51.859H206.6v2.235c0,.583.1.777.777.777h.777v.972H203v-.972h.972c.389,0,.68-.1.68-.777V48.749c0-.68-.292-.777-.777-.777H203V47h4.956v.972h-.875c-.389,0-.68.1-.68.777v1.944h5.151V48.749c0-.68-.292-.777-.777-.777h-.68V47h4.956v.972h-.972c-.389,0-.68.1-.68.777v5.345Z" transform="translate(-61.989 -46.708)"/>
      <path id="Path_291" data-name="Path 291" class="cls-1" d="M221.6,54.094c0,.583.1.777.777.777h.875v.972H218.1v-.972h.972c.389,0,.68-.1.68-.777V48.749c0-.68-.194-.777-.777-.777H218.1V47h5.151v.972h-.972c-.389,0-.68.1-.68.777Z" transform="translate(-62.415 -46.708)"/>
      <path id="Path_292" data-name="Path 292" class="cls-1" d="M232.106,53.8l2.721-5.151c.194-.389,0-.68-.389-.68h-.972V47h4.47v.972h-.777c-.486,0-.68.194-.875.68L232.4,55.844h-1.263l-3.984-7.191c-.194-.292-.292-.68-.972-.68H225.4V47h5.345v.972h-.972c-.486,0-.68.194-.486.68Z" transform="translate(-62.621 -46.708)"/>
      <path id="Path_293" data-name="Path 293" class="cls-1" d="M250.215,55.944H240.4v-.972h.875c.486,0,.777,0,.777-.777V48.849c0-.583-.1-.777-.777-.777H240.4V47.1h9.621l.389,3.207-.972.1c-.292-1.749-1.069-2.138-2.332-2.138H243.9v2.527h1.652c.583,0,.777-.1.777-.777v-.68h.972v4.179h-.972v-.875c0-.389-.1-.68-.777-.68H243.9v2.818h3.013c1.652,0,2.332-.292,2.721-2.624.292,0,.68.1.972.1Z" transform="translate(-63.043 -46.711)"/>
    </g>
    <path id="Path_294" data-name="Path 294" class="cls-1" d="M291.725,49.17H265.194v.1H265v4.956h.194v.1h26.531c1.944,0,4.665-.1,5.151,1.361a1.836,1.836,0,0,1-.486,2.138,1.011,1.011,0,0,0-1.069-1.361c-1.263,0-1.263,2.235.1,2.43s2.721-1.652,2.041-3.4c-.777-1.846-3.887-1.652-5.928-1.652h-2.915V52.377c4.179.1,7.386.194,8.066.194,2.332.194,2.235,2.721,2.235,2.721a3.933,3.933,0,0,0,1.263-2.721,5.3,5.3,0,0,1,1.652.292,21,21,0,0,1,5.248-1.069h0a26.5,26.5,0,0,1-5.248-1.069,6.162,6.162,0,0,1-1.652.292,3.933,3.933,0,0,0-1.263-2.721s.1,2.527-2.235,2.721c-.68.1-3.984.1-8.066.194V49.753h2.915c2.041,0,5.151.194,5.928-1.652.68-1.749-.68-3.6-2.041-3.4s-1.361,2.43-.1,2.43a1.011,1.011,0,0,0,1.069-1.361c.68.389.875,1.166.486,2.138C296.39,49.17,293.669,49.17,291.725,49.17Zm-23.712,4.665h-2.138V52.085h2.138Zm0-2.43h-2.138V49.656h2.138Zm16.91,2.43H268.79V52.085c3.887,0,10.3.1,16.132.194Zm0-2.624c-5.734.1-12.245.194-16.132.194V49.656h16.132Zm2.915,2.624H285.8V52.28h2.041Zm0-2.624H285.8V49.656h2.041Z" transform="translate(-7.468 -1.259)"/>
    <path id="Path_295" data-name="Path 295" class="cls-1" d="M15.841,54.318H42.371v-.1h.194V49.264h-.194v-.1H15.841c-1.944,0-4.665.1-5.151-1.361a1.836,1.836,0,0,1,.486-2.138,1.011,1.011,0,0,0,1.069,1.361c1.263,0,1.263-2.235-.1-2.43S9.427,46.252,10.107,48c.777,1.846,3.887,1.652,5.928,1.652H18.95v1.458c-4.179-.1-7.386-.194-8.066-.194C8.552,50.722,8.649,48.2,8.649,48.2a3.933,3.933,0,0,0-1.263,2.721,5.3,5.3,0,0,1-1.652-.292A21,21,0,0,1,.486,51.694l-.486.1H.389A26.5,26.5,0,0,1,5.637,52.86a6.162,6.162,0,0,1,1.652-.292A3.933,3.933,0,0,0,8.552,55.29s-.1-2.527,2.235-2.721c.68-.1,3.984-.1,8.066-.194v1.458H15.938c-2.041,0-5.151-.194-5.928,1.652-.68,1.749.68,3.6,2.041,3.4s1.361-2.43.1-2.43a1.011,1.011,0,0,0-1.069,1.361c-.68-.389-.875-1.166-.486-2.138C11.176,54.318,13.9,54.318,15.841,54.318Zm23.712-4.665h2.138V51.4H39.553Zm0,2.43h2.138v1.749H39.553Zm-16.91-2.43H38.776V51.4c-3.887,0-10.3-.1-16.132-.194V49.653Zm0,2.624c5.734-.1,12.245-.194,16.132-.194v1.749H22.643V52.277Zm-2.915-2.624h2.041v1.555H19.728Zm0,2.721h2.041v1.555H19.728Z" transform="translate(0 -1.257)"/>
  </g>
</svg>
